<?xml version="1.0" encoding="utf-8"?>
<!-- Generator: Adobe Illustrator 25.2.1, SVG Export Plug-In . SVG Version: 6.00 Build 0)  -->
<svg version="1.1" id="Layer_1" xmlns="http://www.w3.org/2000/svg" xmlns:xlink="http://www.w3.org/1999/xlink" x="0px" y="0px"
	 viewBox="0 0 864 864" style="enable-background:new 0 0 864 864;" xml:space="preserve">
<style type="text/css">
	.st0{opacity:0.75;fill:#FF6666;}
	.st1{opacity:0.75;fill:#FFB966;}
	.st2{opacity:0.75;fill:#FBFF66;}
	.st3{opacity:0.75;fill:#6EFF66;}
	.st4{opacity:0.75;fill:#0D6805;}
	.st5{opacity:0.75;fill:#62F4EC;}
	.st6{opacity:0.75;fill:#2E3FD8;}
	.st7{opacity:0.75;fill:#A164F2;}
	.st8{opacity:0.75;fill:#EF65E8;}
	.st9{opacity:0.75;fill:#EF009F;}
	.st10{opacity:0.75;fill:#A80202;}
	.st11{opacity:0.75;fill:#FF8500;}
	.st12{opacity:0.75;fill:#3A1D00;}
	.st13{opacity:0.75;fill:#BBFF00;}
	.st14{fill:none;}
	.st15{fill:#FFFFFF;}
	.st16{font-family:'Roboto-Black';}
	.st17{font-size:19.8502px;}
	.st18{opacity:0.75;}
</style>
<path class="st0" d="M541.97,491.74l85.34-30.15c0,0,17.07,6.83,20.48,15.08l-62.59,156.75v44.38
	c-68.27-19.34-44.95-10.81-53.48-172.96L541.97,491.74z"/>
<path class="st1" d="M593.18,201.57H755.9l-97.86,249.2c0,0-19.91-2.84-31.86,3.98l-17.64-46.65V237.99
	C608.54,237.99,613.66,230.59,593.18,201.57z"/>
<path class="st2" d="M516.37,404.12h86.48v4.55l17.07,46.09l-78.52,31.29c0,0-5.12-17.07-25.03-5.69V404.12z"/>
<polygon class="st3" points="601.71,397.99 516.37,397.99 516.37,356.9 542.54,302.85 540.83,280.66 601.71,280.66 "/>
<polygon class="st4" points="459.47,215.8 459.47,191.33 474.83,152.64 474.83,135.31 332.6,135.31 296.18,180.52 401.44,215.8 "/>
<path class="st5" d="M480.3,134.44h38.92c0,0,85.34,76.45,82.5,99.77c0,0,3.55,29.59,0.07,42.67h-67.21v11.38h-47.22l-18.5-18.7
	l-4.83-73.47l17.64-41.53L480.3,134.44z"/>
<path class="st6" d="M533.67,293.74h-49.16l-16.5-15.93l-3.98-55.76h-63.15L292.2,186.78c0,0-68.27,116.64-72.26,128.58l41.53,26.74
	c0,0,11.95-3.86,13.65-2.78c1.71,1.07,18.21-14.29,18.21-14.29s-13.65-0.57,28.45-50.64l5.69,3.41l-11.95,15.93l5.69,7.97h58.03
	l1.71,44.95c0,0,0.57,5.69,9.1,5.69h121.76l21.85-51.21V293.74z"/>
<path class="st7" d="M509.54,358.6v39.38h-3.41c-5.12-14.92-61.45-21.75-115.5-15.49l-79.08-59.17h-12.52c0,0-4.55,0,11.95-22.76
	l8.53,7.97l54.05,0.57l3.24,48.93L509.54,358.6z"/>
<path class="st8" d="M215.96,323.9l44.38,25.38c0,0-6.26,8.76,7.97,16.15v225.88c0,0-102.98-2.84-166.7-29.59l-4.55-19.34
	L215.96,323.9z"/>
<path class="st9" d="M584.07,685.18v6.83h-39.83v27.31H417.94l-13.94-9.1V663h-10.52l0-59.17c-11.14-20.24-72.9-23.88-43.24-85.91
	c0,0,17.63-28.45,53.76-21.62l112.37-1.06c0,0,0.57,9.59,7.97,9.59c7.4,0,7.4,155.89,7.4,155.89L584.07,685.18z"/>
<path class="st9" d="M280.46,345.72"/>
<path class="st10" d="M298.45,330.73l8.54-2.56l81.36,59.46c0,0,104.69-7.97,113.79,16.5h7.4v32.03c0,0,19.34,4.38-67.14-5.86
	c0,0-14.79,5.69-14.79,10.24s-17.64,13.09-23.61,11.95c-5.97-1.14-65.14-18.78-65.14-18.78l-56.33,2.45c0,0-1.71-8.14-7.97-8.71
	v-62.02c0,0,8.95-5.28,5.9-19.71L298.45,330.73z"/>
<path class="st11" d="M509.54,445.09v31.86c0,0,1.71,7.97,6.83,9.1v2.84H386.65c0,0-18.78,0.57-31.29,12.52h-59.17v-60.88h40.4
	l69.7,21.05c0,0,29.3-17.07,32.71-21.05C442.4,436.55,457.2,436.55,509.54,445.09z"/>
<path class="st12" d="M349.1,506.53h-52.91v77.95c0,0,2.28,10.81,0,12.52l31.29,80.79c0,0,36.41,1.71,27.31,26.74l42.67,4.55v-35.84
	l-9.67-2.84l-1.14-57.46c0,0,4.8-3.44-28.45-25.6C324.06,564.57,336.01,522.46,349.1,506.53z"/>
<path class="st13" d="M666,461.59c0,0,29.02,11.38,32.43,18.78l-42.67,89.33h-13.65v18.21c0,0,32.43,0.36,36.41,0
	c6.01-0.54,52.46,35.82-1.71,63.72h-66.57v5.69h31.86l-22.19,72.26l-23.9-6.26v-86.48L666,461.59z"/>
<rect x="392.98" y="404.12" class="st14" width="92.17" height="18.78"/>
<text transform="matrix(1 0 0 1 392.9756 419.0078)" class="st15 st16 st17">ACAVBU</text>
<rect x="305.29" y="463.46" class="st14" width="92.17" height="18.78"/>
<text transform="matrix(1 0 0 1 305.2861 478.3476)" class="st15 st16 st17">ACJWBL</text>
<rect x="521.9" y="437.96" class="st14" width="83.89" height="16.52"/>
<text transform="matrix(1 0 0 1 521.9023 452.8447)" class="st18 st16 st17">AZCMNB</text>
<rect x="529.53" y="335.83" class="st14" width="73.6" height="16.52"/>
<text transform="matrix(1 0 0 1 529.5273 350.7177)" class="st18 st16 st17">DCB001</text>
<rect x="429.75" y="362.09" class="st14" width="73.6" height="16.52"/>
<text transform="matrix(1 0 0 1 429.7451 376.9765)" class="st15 st16 st17">DCB005</text>
<rect x="285.27" y="228.43" class="st14" width="78.56" height="16.52"/>
<text transform="matrix(1 0 0 1 285.2734 243.3147)" class="st15 st16 st17">FTWNES</text>
<rect x="164.03" y="521.42" class="st14" width="78.56" height="16.52"/>
<text transform="matrix(1 0 0 1 164.0302 536.3067)" class="st15 st16 st17">GCB010</text>
<rect x="307.54" y="607.81" class="st14" width="78.56" height="16.52"/>
<text transform="matrix(1 0 0 1 307.5381 622.6933)" class="st15 st16 st17">GCB071</text>
<rect x="455.1" y="689.2" class="st14" width="78.56" height="16.52"/>
<text transform="matrix(1 0 0 1 455.1045 704.0849)" class="st15 st16 st17">GCB34B</text>
<rect x="542.59" y="507.11" class="st14" width="82.96" height="16.52"/>
<text transform="matrix(1 0 0 1 542.5918 521.997)" class="st15 st16 st17">HMSAB5</text>
<rect x="613.54" y="612.81" class="st14" width="82.96" height="16.52"/>
<text transform="matrix(1 0 0 1 613.5403 627.6953)" class="st18 st16 st17">IGCHNS</text>
<rect x="623.33" y="288.26" class="st14" width="82.33" height="15.94"/>
<text transform="matrix(1 0 0 1 623.3281 303.1474)" class="st15 st16 st17">NBWCBL</text>
<rect x="514.82" y="249.68" class="st14" width="82.33" height="15.94"/>
<text transform="matrix(1 0 0 1 514.8184 264.5703)" class="st18 st16 st17">NHGCSB</text>
<rect x="342.07" y="156.86" class="st14" width="82.33" height="15.94"/>
<text transform="matrix(1 0 0 1 342.067 171.7479)" class="st15 st16 st17">NHGEEB</text>
</svg>
