<svg width="1113" height="193" viewBox="0 0 1113 193" fill="none" xmlns="http://www.w3.org/2000/svg">
<path d="M306.945 96.3633H312.805C318.547 96.3633 322.785 95.4062 325.52 93.4922C328.254 91.5781 329.621 88.5703 329.621 84.4688C329.621 80.4062 328.215 77.5156 325.402 75.7969C322.629 74.0781 318.312 73.2188 312.453 73.2188H306.945V96.3633ZM306.945 111.129V144H288.781V58.3359H313.742C325.383 58.3359 333.996 60.4648 339.582 64.7227C345.168 68.9414 347.961 75.3672 347.961 84C347.961 89.0391 346.574 93.5312 343.801 97.4766C341.027 101.383 337.102 104.449 332.023 106.676C344.914 125.934 353.312 138.375 357.219 144H337.062L316.613 111.129H306.945ZM408.195 144L404.738 135.094H404.27C401.262 138.883 398.156 141.52 394.953 143.004C391.789 144.449 387.648 145.172 382.531 145.172C376.242 145.172 371.281 143.375 367.648 139.781C364.055 136.188 362.258 131.07 362.258 124.43C362.258 117.477 364.68 112.359 369.523 109.078C374.406 105.758 381.75 103.922 391.555 103.57L402.922 103.219V100.348C402.922 93.707 399.523 90.3867 392.727 90.3867C387.492 90.3867 381.34 91.9688 374.27 95.1328L368.352 83.0625C375.891 79.1172 384.25 77.1445 393.43 77.1445C402.219 77.1445 408.957 79.0586 413.645 82.8867C418.332 86.7148 420.676 92.5352 420.676 100.348V144H408.195ZM402.922 113.648L396.008 113.883C390.812 114.039 386.945 114.977 384.406 116.695C381.867 118.414 380.598 121.031 380.598 124.547C380.598 129.586 383.488 132.105 389.27 132.105C393.41 132.105 396.711 130.914 399.172 128.531C401.672 126.148 402.922 122.984 402.922 119.039V113.648ZM499.602 144H481.73V105.738C481.73 101.012 480.891 97.4766 479.211 95.1328C477.531 92.75 474.855 91.5586 471.184 91.5586C466.184 91.5586 462.57 93.2383 460.344 96.5977C458.117 99.918 457.004 105.445 457.004 113.18V144H439.133V78.4922H452.785L455.188 86.8711H456.184C458.176 83.707 460.91 81.3242 464.387 79.7227C467.902 78.082 471.887 77.2617 476.34 77.2617C483.957 77.2617 489.738 79.332 493.684 83.4727C497.629 87.5742 499.602 93.5117 499.602 101.285V144ZM538.742 145.172C531.047 145.172 524.992 142.184 520.578 136.207C516.203 130.23 514.016 121.949 514.016 111.363C514.016 100.621 516.242 92.2617 520.695 86.2852C525.188 80.2695 531.359 77.2617 539.211 77.2617C547.453 77.2617 553.742 80.4648 558.078 86.8711H558.664C557.766 81.9883 557.316 77.6328 557.316 73.8047V52.8281H575.246V144H561.535L558.078 135.504H557.316C553.254 141.949 547.062 145.172 538.742 145.172ZM545.012 130.934C549.582 130.934 552.922 129.605 555.031 126.949C557.18 124.293 558.352 119.781 558.547 113.414V111.48C558.547 104.449 557.453 99.4102 555.266 96.3633C553.117 93.3164 549.602 91.793 544.719 91.793C540.734 91.793 537.629 93.4922 535.402 96.8906C533.215 100.25 532.121 105.152 532.121 111.598C532.121 118.043 533.234 122.887 535.461 126.129C537.688 129.332 540.871 130.934 545.012 130.934ZM608.176 111.129C608.176 117.613 609.23 122.516 611.34 125.836C613.488 129.156 616.965 130.816 621.77 130.816C626.535 130.816 629.953 129.176 632.023 125.895C634.133 122.574 635.188 117.652 635.188 111.129C635.188 104.645 634.133 99.7812 632.023 96.5391C629.914 93.2969 626.457 91.6758 621.652 91.6758C616.887 91.6758 613.449 93.2969 611.34 96.5391C609.23 99.7422 608.176 104.605 608.176 111.129ZM653.469 111.129C653.469 121.793 650.656 130.133 645.031 136.148C639.406 142.164 631.574 145.172 621.535 145.172C615.246 145.172 609.699 143.805 604.895 141.07C600.09 138.297 596.398 134.332 593.82 129.176C591.242 124.02 589.953 118.004 589.953 111.129C589.953 100.426 592.746 92.1055 598.332 86.168C603.918 80.2305 611.77 77.2617 621.887 77.2617C628.176 77.2617 633.723 78.6289 638.527 81.3633C643.332 84.0977 647.023 88.0234 649.602 93.1406C652.18 98.2578 653.469 104.254 653.469 111.129ZM726.887 144H709.016V105.738C709.016 101.012 708.215 97.4766 706.613 95.1328C705.051 92.75 702.57 91.5586 699.172 91.5586C694.602 91.5586 691.281 93.2383 689.211 96.5977C687.141 99.957 686.105 105.484 686.105 113.18V144H668.234V78.4922H681.887L684.289 86.8711H685.285C687.043 83.8633 689.582 81.5195 692.902 79.8398C696.223 78.1211 700.031 77.2617 704.328 77.2617C714.133 77.2617 720.773 80.4648 724.25 86.8711H725.832C727.59 83.8242 730.168 81.4609 733.566 79.7812C737.004 78.1016 740.871 77.2617 745.168 77.2617C752.59 77.2617 758.195 79.1758 761.984 83.0039C765.812 86.793 767.727 92.8867 767.727 101.285V144H749.797V105.738C749.797 101.012 748.996 97.4766 747.395 95.1328C745.832 92.75 743.352 91.5586 739.953 91.5586C735.578 91.5586 732.297 93.1211 730.109 96.2461C727.961 99.3711 726.887 104.332 726.887 111.129V144ZM785.363 61.5586C785.363 55.7383 788.605 52.8281 795.09 52.8281C801.574 52.8281 804.816 55.7383 804.816 61.5586C804.816 64.332 803.996 66.5 802.355 68.0625C800.754 69.5859 798.332 70.3477 795.09 70.3477C788.605 70.3477 785.363 67.418 785.363 61.5586ZM803.996 144H786.125V78.4922H803.996V144ZM868.391 144H816.652V133.453L847.004 92.1445H818.469V78.4922H867.336V90.0938L837.805 130.348H868.391V144ZM908.527 89.9766C904.738 89.9766 901.77 91.1875 899.621 93.6094C897.473 95.9922 896.242 99.3906 895.93 103.805H921.008C920.93 99.3906 919.777 95.9922 917.551 93.6094C915.324 91.1875 912.316 89.9766 908.527 89.9766ZM911.047 145.172C900.5 145.172 892.258 142.262 886.32 136.441C880.383 130.621 877.414 122.379 877.414 111.715C877.414 100.738 880.148 92.2617 885.617 86.2852C891.125 80.2695 898.723 77.2617 908.41 77.2617C917.668 77.2617 924.875 79.8984 930.031 85.1719C935.188 90.4453 937.766 97.7305 937.766 107.027V115.699H895.52C895.715 120.777 897.219 124.742 900.031 127.594C902.844 130.445 906.789 131.871 911.867 131.871C915.812 131.871 919.543 131.461 923.059 130.641C926.574 129.82 930.246 128.512 934.074 126.715V140.543C930.949 142.105 927.609 143.258 924.055 144C920.5 144.781 916.164 145.172 911.047 145.172Z" fill="#55565A"/>
<circle cx="96.5" cy="96.5" r="96.5" fill="#55565A"/>
<path d="M84.5785 80.4324L51.9817 50.3796C44.9954 50.1792 42.9646 51.9071 43.1088 58.5758L75.6427 88.6286L84.5785 80.4324ZM113.151 52.1487C116.615 57.1167 123.478 61.0354 122.021 62.238L43.1088 135.19C42.4545 142.293 44.6695 143.842 51.9817 143.386L130.957 70.4923C132.786 69.3113 135.364 73.8881 140.238 76.7903C151.598 83.5551 153.351 59.2082 143.794 50.3796C134.236 41.5511 105.834 41.6514 113.151 52.1487ZM111.26 105.079L102.387 113.275L122.084 131.47C123.621 133.377 116.955 137.017 113.151 140.859C104.028 150.071 134.236 152.215 143.794 143.386C153.351 134.558 151.642 106.573 140.238 113.275C135.238 116.214 132.756 124.532 130.957 123.274L111.26 105.079Z" fill="white"/>
</svg>
